<svg width="108" height="108" viewBox="0 0 52 52" fill="none" xmlns="http://www.w3.org/2000/svg">
<!-- <circle cx="26" cy="26" r="25" stroke="#94CC50" stroke-width="2"/> -->
<path d="M27 28C27 27.45 26.328 27 25.5 27C24.672 27 24 27.45 24 28V32C24 32.55 24.672 33 25.5 33C26.328 33 27 32.55 27 32V28Z" fill="#94CC50"/>
<path fill-rule="evenodd" clip-rule="evenodd" d="M25.5 10C31.0036 10 35.4643 14.4618 35.4643 19.9643C38.5211 19.9643 41 22.4443 41 25.5V35.4643C41 38.52 38.5211 41 35.4643 41H15.5357C12.4789 41 10 38.52 10 35.4643V25.5C10 22.4443 12.4789 19.9643 15.5357 19.9643C15.5357 14.4618 19.9964 10 25.5 10ZM25.5 12.2143C21.2198 12.2143 17.75 15.6796 17.75 19.9643H33.25C33.25 15.6796 29.7802 12.2143 25.5 12.2143ZM38.7857 35.4643V25.5C38.7857 23.6621 37.2988 22.1786 35.4643 22.1786H15.5357C13.7012 22.1786 12.2143 23.6621 12.2143 25.5V35.4643C12.2143 37.3021 13.7012 38.7857 15.5357 38.7857H35.4643C37.2988 38.7857 38.7857 37.3021 38.7857 35.4643Z" fill="#94CC50"/>
</svg>
