<svg width="108" height="108" viewBox="0 0 52 52" fill="none" xmlns="http://www.w3.org/2000/svg">
<path fill-rule="evenodd" clip-rule="evenodd" d="M15.839 14C14.875 14 14 14.843 14 16V36.98C14 37.81 14.944 38.28 15.602 37.78L21.193 33.56C22.262 32.76 23.738 32.76 24.807 33.56L30.398 37.78C31.056 38.28 32 37.81 32 36.98V15.769C32 15.121 32.169 14.521 32.464 14H15.839ZM36 12H15.839C13.667 12 12 13.844 12 16V36.98C12 39.46 14.831 40.87 16.807 39.38L22.398 35.16C22.754 34.89 23.246 34.89 23.602 35.16L29.193 39.38C31.169 40.87 34 39.46 34 36.98V23H37C38.657 23 40 21.657 40 20V15.769C40 13.614 38.132 12 36 12ZM34 21H37C37.552 21 38 20.552 38 20V15.769C38 14.866 37.181 14 36 14C34.819 14 34 14.866 34 15.769V21Z" fill="#94CC50"/>
<!-- <circle cx="26" cy="26" r="25" stroke="#94CC50" stroke-width="2"/> -->
</svg>
